<svg width="14" height="14" viewBox="0 0 14 14" fill="none" xmlns="http://www.w3.org/2000/svg">
<path d="M7.51207 13.9332C6.45478 13.9332 5.51349 13.7891 4.68821 13.5007C3.86293 13.2157 3.16525 12.7964 2.59517 12.2429C2.02509 11.6927 1.59091 11.0199 1.29261 10.2244C0.994318 9.42898 0.84517 8.52415 0.84517 7.50994C0.84517 6.509 0.994318 5.60085 1.29261 4.78551C1.59422 3.97017 2.03338 3.27083 2.61009 2.6875C3.18679 2.10085 3.8911 1.65009 4.72301 1.33523C5.55824 1.02036 6.50947 0.862926 7.5767 0.862926C8.56439 0.862926 9.44602 1.0071 10.2216 1.29545C11.0005 1.58381 11.66 1.99479 12.2003 2.52841C12.7438 3.05871 13.1565 3.6901 13.4382 4.42259C13.7232 5.15175 13.8641 5.95881 13.8608 6.84375C13.8641 7.4536 13.8111 8.01373 13.7017 8.52415C13.5923 9.03456 13.42 9.48035 13.1847 9.86151C12.9527 10.2393 12.6477 10.5393 12.2699 10.7614C11.892 10.9801 11.4347 11.1044 10.8977 11.1342C10.5133 11.1641 10.2017 11.1359 9.96307 11.0497C9.72443 10.9635 9.54214 10.8359 9.41619 10.6669C9.29356 10.4946 9.21402 10.294 9.17756 10.0653H9.1179C9.03835 10.2642 8.88258 10.4448 8.65057 10.6072C8.41856 10.7663 8.13518 10.8906 7.80043 10.9801C7.46899 11.0663 7.116 11.0978 6.74148 11.0746C6.35038 11.0514 5.97917 10.9602 5.62784 10.8011C5.27983 10.642 4.96993 10.4117 4.69815 10.1101C4.42969 9.80848 4.21757 9.43561 4.06179 8.99148C3.90933 8.54735 3.83144 8.03362 3.82812 7.45028C3.83144 6.87358 3.91264 6.37145 4.07173 5.94389C4.23414 5.51633 4.44792 5.15672 4.71307 4.86506C4.98153 4.57339 5.27983 4.3447 5.60795 4.17898C5.93608 4.01326 6.26586 3.9072 6.5973 3.8608C6.97183 3.80445 7.32647 3.80445 7.66122 3.8608C7.99598 3.91714 8.2777 4.00829 8.50639 4.13423C8.7384 4.26018 8.88258 4.39607 8.93892 4.5419H9.00852V3.98508H10.5646V8.83736C10.5679 9.06605 10.6193 9.24337 10.7188 9.36932C10.8182 9.49527 10.9524 9.55824 11.1214 9.55824C11.3501 9.55824 11.5407 9.45715 11.6932 9.25497C11.849 9.05279 11.965 8.7429 12.0412 8.32528C12.1207 7.90767 12.1605 7.37571 12.1605 6.7294C12.1605 6.1063 12.0777 5.55942 11.9119 5.08878C11.7495 4.61482 11.5208 4.21212 11.2259 3.88068C10.9342 3.54593 10.5945 3.27415 10.2067 3.06534C9.81889 2.85653 9.39796 2.70407 8.94389 2.60795C8.49313 2.51184 8.02912 2.46378 7.55185 2.46378C6.72656 2.46378 6.00568 2.58973 5.3892 2.84162C4.77273 3.0902 4.259 3.43987 3.84801 3.89062C3.43703 4.34138 3.12879 4.87003 2.9233 5.47656C2.72112 6.07978 2.61837 6.73769 2.61506 7.45028C2.61837 8.2358 2.72775 8.93182 2.94318 9.53835C3.16193 10.1416 3.48343 10.6487 3.90767 11.0597C4.33191 11.4706 4.85559 11.7822 5.47869 11.9943C6.1018 12.2064 6.81771 12.3125 7.62642 12.3125C8.00758 12.3125 8.38044 12.2843 8.74503 12.228C9.10961 12.175 9.43939 12.1087 9.73438 12.0291C10.0294 11.9529 10.2663 11.8783 10.4453 11.8054L10.9375 13.2472C10.7287 13.3665 10.4453 13.4775 10.0874 13.5803C9.73272 13.6863 9.33168 13.7708 8.88423 13.8338C8.4401 13.9001 7.98272 13.9332 7.51207 13.9332ZM7.28338 9.43892C7.68774 9.43892 8.00923 9.36103 8.24787 9.20526C8.48982 9.04948 8.66217 8.81913 8.76492 8.5142C8.87098 8.20597 8.92069 7.82647 8.91406 7.37571C8.91075 6.97798 8.85938 6.64157 8.75994 6.36648C8.66383 6.08807 8.49645 5.8776 8.25781 5.73509C8.02249 5.58925 7.69437 5.51634 7.27344 5.51634C6.90554 5.51634 6.59233 5.59422 6.33381 5.75C6.0786 5.90578 5.88305 6.12453 5.74716 6.40625C5.61458 6.68466 5.54664 7.01278 5.54332 7.39062C5.54664 7.74195 5.60298 8.07505 5.71236 8.38991C5.82173 8.70147 6.00237 8.95502 6.25426 9.15057C6.50616 9.3428 6.8492 9.43892 7.28338 9.43892Z" fill="white"/>
</svg>
