<svg width="13" height="11" viewBox="0 0 13 11" fill="none" xmlns="http://www.w3.org/2000/svg">
<path d="M0.696023 11V3.36364H3.44034V11H0.696023ZM2.06818 2.56818C1.69697 2.56818 1.37879 2.44555 1.11364 2.20028C0.848485 1.95502 0.715909 1.66004 0.715909 1.31534C0.715909 0.970644 0.848485 0.675663 1.11364 0.430397C1.37879 0.185132 1.69697 0.0625 2.06818 0.0625C2.44271 0.0625 2.76089 0.185132 3.02273 0.430397C3.28788 0.675663 3.42045 0.970644 3.42045 1.31534C3.42045 1.66004 3.28788 1.95502 3.02273 2.20028C2.76089 2.44555 2.44271 2.56818 2.06818 2.56818ZM7.58292 6.70455V11H4.8386V3.36364H7.44371V4.81534H7.52326C7.68898 4.33144 7.98065 3.95194 8.39826 3.67685C8.81919 3.40175 9.30972 3.2642 9.86985 3.2642C10.4101 3.2642 10.8791 3.38849 11.2768 3.63707C11.6779 3.88234 11.9877 4.22041 12.2065 4.65128C12.4286 5.08215 12.5379 5.57434 12.5346 6.12784V11H9.79031V6.70455C9.79362 6.3267 9.6975 6.03007 9.50195 5.81463C9.30972 5.5992 9.04125 5.49148 8.69656 5.49148C8.47118 5.49148 8.27397 5.54119 8.10494 5.64062C7.93922 5.73674 7.81161 5.87595 7.72212 6.05824C7.63263 6.23722 7.58623 6.45265 7.58292 6.70455Z" fill="white"/>
</svg>
