<svg width="14" height="13" viewBox="0 0 14 13" fill="none" xmlns="http://www.w3.org/2000/svg">
<g clip-path="url(#clip0_4661_57)">
<path d="M0 6.50065C0.0364036 4.65577 0.737874 3.11511 2.10581 1.87999C3.47375 0.644865 5.10491 0.0169017 7.0007 0C9.0421 0.0338034 10.7153 0.681268 12.0188 1.94239C13.3223 3.20352 13.9832 4.72337 14.0014 6.50065C13.965 8.32863 13.2635 9.86539 11.8956 11.1096C10.5277 12.3525 8.89649 12.9831 7.0007 13C6.34403 13 5.68877 12.9064 5.0321 12.7205C5.15952 12.5346 5.28693 12.3226 5.41434 12.086C5.55996 11.7987 5.74197 11.2565 5.9618 10.4608C6.0164 10.2411 6.09901 9.94469 6.20822 9.57156C6.33563 9.77438 6.55406 9.9603 6.86489 10.1306C7.68537 10.4855 8.55066 10.4517 9.46215 10.0292C10.41 9.52085 11.0667 8.73427 11.4307 7.66817C11.7584 6.55135 11.7178 5.51385 11.3075 4.55826C10.8973 3.60136 10.1636 2.91229 9.10651 2.48845C7.77638 2.13351 6.48125 2.17122 5.22392 2.60286C3.9666 3.0345 3.09151 3.77558 2.59866 4.82478C2.47125 5.21352 2.39424 5.59966 2.36624 5.9806C2.33823 6.36154 2.35224 6.73337 2.40684 7.09741C2.46145 7.46145 2.59866 7.78778 2.81708 8.07511C3.0355 8.36244 3.32813 8.58346 3.69217 8.73557C3.78318 8.76938 3.85599 8.76938 3.91059 8.73557C3.9834 8.70177 4.05621 8.56656 4.12901 8.32993C4.20182 8.09331 4.22982 7.93209 4.21162 7.84758C4.19342 7.81378 4.15702 7.75398 4.10241 7.66947C3.72017 7.09351 3.59136 6.48895 3.72017 5.85449C3.84758 5.22002 4.13041 4.68177 4.56726 4.24232C5.24212 3.68327 6.0304 3.37904 6.93209 3.32833C7.83378 3.27763 8.60526 3.50645 9.24232 4.0135C9.58816 4.38534 9.81218 4.83388 9.91159 5.35914C10.011 5.88439 10.0124 6.38754 9.91159 6.86989C9.81078 7.35224 9.63296 7.80468 9.37814 8.22852C8.92169 8.88899 8.38404 9.22702 7.76518 9.24392C7.40114 9.22702 7.10431 9.09571 6.87609 8.84999C6.64786 8.60426 6.57926 8.32083 6.67167 7.9997C6.70807 7.81378 6.81728 7.44975 6.9993 6.90759C7.18132 6.36544 7.28213 5.9598 7.30033 5.68937C7.24573 5.0458 6.92649 4.71557 6.34263 4.69867C5.88619 4.74937 5.55016 4.94049 5.33033 5.26943C5.11051 5.59836 4.9929 5.9767 4.9747 6.39924C5.0293 6.89069 5.11191 7.22872 5.22112 7.41464C5.0209 8.17652 4.86549 8.78628 4.75628 9.24263C4.71987 9.36094 4.61906 9.72497 4.45525 10.3347C4.29143 10.9445 4.20042 11.4099 4.18222 11.7311V12.4422C2.88849 11.8832 1.86639 11.0758 1.12011 10.0175C0.373837 8.9592 0 7.78648 0 6.50065Z" fill="white"/>
</g>
<defs>
<clipPath id="clip0_4661_57">
<rect width="14" height="13" fill="white"/>
</clipPath>
</defs>
</svg>
