<svg width="13" height="14" viewBox="0 0 13 14" fill="none" xmlns="http://www.w3.org/2000/svg">
<path fill-rule="evenodd" clip-rule="evenodd" d="M11.106 2.03451C9.88389 0.723241 8.25866 0.000737017 6.52715 0C2.9594 0 0.0557011 3.11188 0.0542733 6.93688C0.0537974 8.15955 0.351869 9.35307 0.918275 10.4051L0 14L3.43136 13.0353C4.37677 13.588 5.44122 13.8792 6.52455 13.8797H6.52722C10.0946 13.8797 12.9986 10.7674 13 6.94242C13.0007 5.08876 12.328 3.34577 11.106 2.03451ZM6.52722 12.708H6.52501C5.55966 12.7076 4.61279 12.4297 3.78679 11.9043L3.59032 11.7793L1.55413 12.3518L2.09764 10.2241L1.9697 10.0059C1.43117 9.08788 1.14672 8.02678 1.14714 6.93732C1.14832 3.75813 3.56179 1.17167 6.52935 1.17167C7.96631 1.17225 9.31712 1.77281 10.3329 2.86269C11.3486 3.95257 11.9077 5.40128 11.9071 6.94196C11.9059 10.1214 9.49249 12.708 6.52722 12.708ZM9.47823 8.3896C9.31648 8.30284 8.52133 7.88348 8.37307 7.82563C8.22483 7.76778 8.11702 7.73887 8.00918 7.91241C7.90138 8.08593 7.59142 8.47638 7.49705 8.59205C7.40273 8.70774 7.30839 8.72222 7.14664 8.63544C6.98492 8.54868 6.46379 8.36565 5.84602 7.7751C5.36525 7.3155 5.04063 6.74781 4.94629 6.57429C4.85195 6.40075 4.93626 6.30692 5.01722 6.22052C5.08997 6.14285 5.17895 6.01807 5.25982 5.91683C5.34068 5.81561 5.36763 5.74331 5.42153 5.62764C5.47545 5.51194 5.4485 5.41071 5.40806 5.32395C5.36763 5.23719 5.04419 4.38399 4.9094 4.03693C4.77813 3.69892 4.64478 3.74465 4.54551 3.73936C4.45127 3.73433 4.34335 3.73326 4.23554 3.73326C4.12772 3.73326 3.9525 3.77665 3.80424 3.95017C3.656 4.12371 3.23821 4.54307 3.23821 5.39625C3.23821 6.24943 3.81773 7.07368 3.8986 7.18938C3.97946 7.30507 5.03905 9.05594 6.66146 9.80677C7.04733 9.98535 7.3486 10.092 7.58347 10.1719C7.97093 10.3038 8.32351 10.2852 8.60219 10.2406C8.91292 10.1908 9.55906 9.82125 9.69386 9.41634C9.82863 9.01143 9.82863 8.66437 9.7882 8.59207C9.74778 8.51977 9.63996 8.47638 9.47823 8.3896Z" fill="white"/>
</svg>
