<svg width="14" height="11" viewBox="0 0 14 11" fill="none" xmlns="http://www.w3.org/2000/svg">
<path d="M10.2024 3.50411C10.6318 3.09541 11.0581 2.14176 9.26904 3.29976C7.59781 4.39459 5.91526 5.47366 4.22163 6.53682C3.96372 6.64783 3.68491 6.70807 3.40193 6.71392C3.11896 6.71978 2.83766 6.67112 2.57493 6.57088C1.50151 6.26435 0.248411 5.85565 0.248411 5.85565C0.248411 5.85565 -0.607215 5.34403 0.857461 4.79909C0.857461 4.79909 7.04986 2.38018 9.19748 1.52797C10.0204 1.18738 12.8121 0.0974984 12.8121 0.0974984C12.8121 0.0974984 14.101 -0.380064 13.9936 0.778673C13.9579 1.2555 13.6716 2.92585 13.3854 4.73097C12.9552 7.28611 12.4901 10.0804 12.4901 10.0804C12.4901 10.0804 12.4185 10.8638 11.8102 11C11.1591 10.9895 10.53 10.7739 10.0212 10.3869C9.87809 10.2848 7.33688 8.75138 6.4058 8.00209C6.31109 7.94102 6.23415 7.85814 6.18213 7.76115C6.1301 7.66417 6.1047 7.55624 6.10827 7.4474C6.11184 7.33856 6.14427 7.23235 6.20255 7.13865C6.26083 7.04495 6.34305 6.9668 6.44159 6.91147C7.71861 5.79932 8.97247 4.66331 10.2024 3.50411Z" fill="white"/>
</svg>
