<svg width="28" height="32" viewBox="0 0 28 32" fill="none" xmlns="http://www.w3.org/2000/svg">
<path d="M26.4444 9.62677L17.1111 1.22083C16.2556 0.434643 15.1479 0 14 0C12.8522 0 11.7445 0.434643 10.889 1.22083L1.55569 9.62677C1.0616 10.0807 0.667321 10.6377 0.399101 11.2604C0.130881 11.8832 -0.00512172 12.5575 0.000147456 13.2385V27.2057C0.000147456 28.4773 0.491809 29.6967 1.36697 30.5958C2.24214 31.4949 3.42911 32 4.66678 32H23.3333C24.571 32 25.758 31.4949 26.6331 30.5958C27.5083 29.6967 27.9999 28.4773 27.9999 27.2057V13.2225C28.003 12.5442 27.8659 11.8729 27.5978 11.2531C27.3296 10.6333 26.9365 10.079 26.4444 9.62677ZM17.1111 28.8038H10.889V20.8134C10.889 20.3895 11.0528 19.9831 11.3446 19.6834C11.6363 19.3837 12.0319 19.2153 12.4445 19.2153H15.5556C15.9681 19.2153 16.3638 19.3837 16.6555 19.6834C16.9472 19.9831 17.1111 20.3895 17.1111 20.8134V28.8038ZM24.8889 27.2057C24.8889 27.6296 24.725 28.0361 24.4333 28.3358C24.1415 28.6355 23.7459 28.8038 23.3333 28.8038H20.2222V20.8134C20.2222 19.5419 19.7306 18.3224 18.8554 17.4233C17.9802 16.5242 16.7933 16.0191 15.5556 16.0191H12.4445C11.2068 16.0191 10.0199 16.5242 9.14469 17.4233C8.26953 18.3224 7.77787 19.5419 7.77787 20.8134V28.8038H4.66678C4.25423 28.8038 3.85857 28.6355 3.56685 28.3358C3.27512 28.0361 3.11124 27.6296 3.11124 27.2057V13.2225C3.11152 12.9956 3.15883 12.7713 3.25002 12.5647C3.34121 12.358 3.47419 12.1737 3.64012 12.0239L12.9734 3.63394C13.2573 3.37774 13.6222 3.23644 14 3.23644C14.3779 3.23644 14.7428 3.37774 15.0267 3.63394L24.36 12.0239C24.5259 12.1737 24.6589 12.358 24.7501 12.5647C24.8413 12.7713 24.8886 12.9956 24.8889 13.2225V27.2057Z" fill="#095A17"/>
</svg>
