<svg width="35" height="35" viewBox="0 0 35 35" fill="none" xmlns="http://www.w3.org/2000/svg">
<path d="M29.5428 15.7314C29.5428 18.463 28.7328 21.1333 27.2152 23.4046C25.6976 25.6758 23.5405 27.4461 21.0168 28.4914C18.4931 29.5368 15.7161 29.8103 13.037 29.2774C10.3578 28.7445 7.89687 27.4291 5.96531 25.4975C4.03375 23.5659 2.71835 21.105 2.18543 18.4258C1.65252 15.7467 1.92603 12.9697 2.97138 10.446C4.01673 7.92228 5.78697 5.76524 8.05824 4.24762C10.3295 2.73001 12.9998 1.91998 15.7314 1.91998C17.5452 1.91998 19.3412 2.27722 21.0168 2.97131C22.6925 3.6654 24.2151 4.68274 25.4976 5.96524C26.7801 7.24775 27.7974 8.77031 28.4915 10.446C29.1856 12.1217 29.5428 13.9176 29.5428 15.7314Z" stroke="#F6FFFA" stroke-width="3" stroke-linecap="round" stroke-linejoin="round"/>
<path d="M33.0001 32.9999L25.4907 25.4906" stroke="#F6FFFA" stroke-width="3" stroke-linecap="round" stroke-linejoin="round"/>
</svg>
