<svg width="34" height="34" viewBox="0 0 34 34" fill="none" xmlns="http://www.w3.org/2000/svg">
<path d="M33.4262 14.0237L18.1223 0.422875C17.812 0.150315 17.413 0 17 0C16.587 0 16.188 0.150315 15.8777 0.422875L0.573784 14.0237C0.313678 14.2538 0.130256 14.5579 0.0481779 14.8953C-0.0338998 15.2327 -0.0106972 15.5871 0.114666 15.9109C0.237979 16.2304 0.454932 16.5052 0.73711 16.6993C1.01929 16.8935 1.35353 16.9979 1.69607 16.9989H3.39651V32.2999C3.39651 32.7508 3.57566 33.1832 3.89456 33.5021C4.21345 33.8209 4.64596 34 5.09694 34H28.9031C29.354 34 29.7866 33.8209 30.1054 33.5021C30.4243 33.1832 30.6035 32.7508 30.6035 32.2999V16.9989H32.3039C32.6465 16.9979 32.9807 16.8935 33.2629 16.6993C33.5451 16.5052 33.762 16.2304 33.8853 15.9109C34.0107 15.5871 34.0339 15.2327 33.9518 14.8953C33.8697 14.5579 33.6863 14.2538 33.4262 14.0237ZM18.7004 30.5998H15.2996V25.4995C15.2996 25.0486 15.4787 24.6161 15.7976 24.2973C16.1165 23.9785 16.549 23.7994 17 23.7994C17.451 23.7994 17.8835 23.9785 18.2024 24.2973C18.5213 24.6161 18.7004 25.0486 18.7004 25.4995V30.5998ZM27.2026 30.5998H22.1013V25.4995C22.1013 24.1468 21.5639 22.8495 20.6072 21.893C19.6505 20.9365 18.353 20.3991 17 20.3991C15.647 20.3991 14.3495 20.9365 13.3928 21.893C12.4361 22.8495 11.8987 24.1468 11.8987 25.4995V30.5998H6.79738V16.9989H27.2026V30.5998ZM6.16822 13.5987L17 3.9761L27.8318 13.5987H6.16822Z" fill="white"/>
</svg>
