<svg width="40" height="40" viewBox="0 0 40 40" fill="none" xmlns="http://www.w3.org/2000/svg">
<path d="M6 32.0023H14.48C14.7432 32.0038 15.0041 31.9534 15.2478 31.8539C15.4915 31.7544 15.7131 31.6078 15.9 31.4225L29.74 17.5665L35.42 12.0081C35.6075 11.8222 35.7562 11.6011 35.8578 11.3575C35.9593 11.1138 36.0116 10.8525 36.0116 10.5885C36.0116 10.3246 35.9593 10.0632 35.8578 9.8196C35.7562 9.57595 35.6075 9.35481 35.42 9.16894L26.94 0.591425C26.7541 0.404023 26.5329 0.255277 26.2892 0.153769C26.0454 0.0522613 25.784 0 25.52 0C25.256 0 24.9946 0.0522613 24.7508 0.153769C24.5071 0.255277 24.2859 0.404023 24.1 0.591425L18.46 6.24978L4.58 20.1058C4.39464 20.2926 4.24799 20.5142 4.14846 20.7578C4.04893 21.0014 3.99848 21.2622 4 21.5254V30.0029C4 30.5332 4.21071 31.0417 4.58579 31.4167C4.96086 31.7917 5.46957 32.0023 6 32.0023ZM25.52 4.8302L31.18 10.4886L28.34 13.3277L22.68 7.66937L25.52 4.8302ZM8 22.3451L19.86 10.4886L25.52 16.1469L13.66 28.0035H8V22.3451ZM38 36.0012H2C1.46957 36.0012 0.960859 36.2118 0.585786 36.5868C0.210714 36.9617 0 37.4703 0 38.0006C0 38.5309 0.210714 39.0394 0.585786 39.4144C0.960859 39.7893 1.46957 40 2 40H38C38.5304 40 39.0391 39.7893 39.4142 39.4144C39.7893 39.0394 40 38.5309 40 38.0006C40 37.4703 39.7893 36.9617 39.4142 36.5868C39.0391 36.2118 38.5304 36.0012 38 36.0012Z" fill="white"/>
</svg>
