<svg width="34" height="30" viewBox="0 0 34 30" fill="none" xmlns="http://www.w3.org/2000/svg">
<path d="M16.9616 21.0306C16.6577 21.0306 16.3606 21.1183 16.108 21.2826C15.8553 21.4468 15.6584 21.6803 15.5421 21.9534C15.4258 22.2266 15.3954 22.5271 15.4546 22.8171C15.5139 23.1071 15.6603 23.3735 15.8751 23.5825C16.09 23.7916 16.3638 23.9339 16.6618 23.9916C16.9599 24.0493 17.2688 24.0197 17.5495 23.9066C17.8303 23.7934 18.0702 23.6018 18.2391 23.356C18.4079 23.1102 18.498 22.8211 18.498 22.5255C18.498 22.129 18.3361 21.7488 18.048 21.4685C17.7598 21.1881 17.369 21.0306 16.9616 21.0306ZM33.3554 23.2281L20.987 2.30004C20.5873 1.60271 20.0034 1.02187 19.2957 0.617526C18.588 0.213183 17.7822 0 16.9616 0C16.1409 0 15.3351 0.213183 14.6274 0.617526C13.9197 1.02187 13.3359 1.60271 12.9361 2.30004L0.644565 23.2281C0.230949 23.9068 0.00869763 24.6796 0.000250134 25.4686C-0.00819736 26.2576 0.197458 27.0348 0.596452 27.7217C0.995447 28.4086 1.57366 28.981 2.27271 29.3809C2.97175 29.7809 3.76689 29.9944 4.57785 29.9998H29.3453C30.1627 30.0076 30.9676 29.8038 31.6774 29.4092C32.3872 29.0146 32.9764 28.4434 33.3845 27.7542C33.7926 27.0651 34.005 26.2827 33.9999 25.4873C33.9948 24.6919 33.7723 23.9122 33.3554 23.2281ZM30.6973 26.2178C30.5627 26.4509 30.3662 26.6446 30.1284 26.7787C29.8905 26.9128 29.6201 26.9824 29.3453 26.9802H4.57785C4.303 26.9824 4.03257 26.9128 3.79475 26.7787C3.55694 26.6446 3.36046 26.4509 3.22578 26.2178C3.09093 25.9905 3.01994 25.7328 3.01994 25.4704C3.01994 25.208 3.09093 24.9502 3.22578 24.7229L15.5173 3.7949C15.6462 3.55004 15.8421 3.34454 16.0834 3.20105C16.3247 3.05756 16.602 2.98163 16.8847 2.98163C17.1675 2.98163 17.4448 3.05756 17.6861 3.20105C17.9273 3.34454 18.1232 3.55004 18.2522 3.7949L30.6205 24.7229C30.7729 24.9469 30.8605 25.2067 30.874 25.475C30.8876 25.7434 30.8265 26.0103 30.6973 26.2477V26.2178ZM16.9616 9.07175C16.5541 9.07175 16.1633 9.22924 15.8751 9.50958C15.587 9.78992 15.4251 10.1701 15.4251 10.5666V16.546C15.4251 16.9425 15.587 17.3227 15.8751 17.6031C16.1633 17.8834 16.5541 18.0409 16.9616 18.0409C17.369 18.0409 17.7598 17.8834 18.048 17.6031C18.3361 17.3227 18.498 16.9425 18.498 16.546V10.5666C18.498 10.1701 18.3361 9.78992 18.048 9.50958C17.7598 9.22924 17.369 9.07175 16.9616 9.07175Z" fill="white"/>
</svg>
