<svg width="38" height="38" viewBox="0 0 38 38" fill="none" xmlns="http://www.w3.org/2000/svg">
<path d="M17.651 25.251C17.5693 25.3413 17.4932 25.4365 17.423 25.536C17.3511 25.6419 17.2936 25.7569 17.252 25.878C17.1972 25.9857 17.1588 26.101 17.138 26.22C17.1287 26.3465 17.1287 26.4735 17.138 26.6C17.1316 26.8492 17.1836 27.0965 17.29 27.322C17.3753 27.5578 17.5115 27.7719 17.6888 27.9492C17.8661 28.1265 18.0802 28.2627 18.316 28.348C18.5434 28.4485 18.7894 28.5004 19.038 28.5004C19.2867 28.5004 19.5326 28.4485 19.76 28.348C19.9958 28.2627 20.2099 28.1265 20.3872 27.9492C20.5645 27.7719 20.7007 27.5578 20.786 27.322C20.8704 27.091 20.9091 26.8458 20.9 26.6C20.9015 26.3499 20.8535 26.1021 20.759 25.8706C20.6644 25.6391 20.5251 25.4285 20.349 25.251C20.1724 25.0729 19.9622 24.9316 19.7307 24.8351C19.4992 24.7386 19.2508 24.689 19 24.689C18.7492 24.689 18.5008 24.7386 18.2693 24.8351C18.0378 24.9316 17.8276 25.0729 17.651 25.251ZM19 0C15.2422 0 11.5687 1.11433 8.44417 3.20208C5.31964 5.28982 2.88436 8.25722 1.4463 11.729C0.0082324 15.2008 -0.368031 19.0211 0.365088 22.7067C1.09821 26.3923 2.90778 29.7778 5.56498 32.435C8.22218 35.0922 11.6077 36.9018 15.2933 37.6349C18.9789 38.368 22.7992 37.9918 26.271 36.5537C29.7428 35.1156 32.7102 32.6804 34.7979 29.5558C36.8857 26.4313 38 22.7578 38 19C38 16.5049 37.5086 14.0342 36.5537 11.729C35.5989 9.42383 34.1993 7.32928 32.435 5.56497C30.6707 3.80066 28.5762 2.40113 26.271 1.44629C23.9658 0.491449 21.4951 0 19 0ZM19 34.2C15.9937 34.2 13.055 33.3085 10.5553 31.6383C8.05571 29.9681 6.10749 27.5942 4.95704 24.8168C3.80659 22.0393 3.50558 18.9831 4.09207 16.0346C4.67857 13.0861 6.12623 10.3777 8.25198 8.25198C10.3777 6.12622 13.0861 4.67856 16.0346 4.09206C18.9831 3.50557 22.0394 3.80658 24.8168 4.95703C27.5942 6.10748 29.9681 8.0557 31.6383 10.5553C33.3085 13.055 34.2 15.9937 34.2 19C34.2 23.0313 32.5986 26.8975 29.748 29.748C26.8975 32.5986 23.0313 34.2 19 34.2ZM19 9.5C17.9988 9.49936 17.0151 9.76243 16.1479 10.2627C15.2807 10.763 14.5606 11.483 14.06 12.35C13.9225 12.5663 13.8302 12.8081 13.7886 13.0609C13.747 13.3138 13.757 13.5724 13.818 13.8213C13.879 14.0702 13.9896 14.3042 14.1434 14.5092C14.2971 14.7142 14.4907 14.886 14.7126 15.0143C14.9345 15.1425 15.18 15.2245 15.4343 15.2554C15.6887 15.2863 15.9467 15.2655 16.1928 15.1941C16.4389 15.1227 16.668 15.0022 16.8664 14.84C17.0647 14.6777 17.2282 14.4771 17.347 14.25C17.5144 13.96 17.7554 13.7195 18.0457 13.5527C18.336 13.3858 18.6652 13.2987 19 13.3C19.5039 13.3 19.9872 13.5002 20.3435 13.8565C20.6998 14.2128 20.9 14.6961 20.9 15.2C20.9 15.7039 20.6998 16.1872 20.3435 16.5435C19.9872 16.8998 19.5039 17.1 19 17.1C18.4961 17.1 18.0128 17.3002 17.6565 17.6565C17.3002 18.0128 17.1 18.4961 17.1 19V20.9C17.1 21.4039 17.3002 21.8872 17.6565 22.2435C18.0128 22.5998 18.4961 22.8 19 22.8C19.5039 22.8 19.9872 22.5998 20.3435 22.2435C20.6998 21.8872 20.9 21.4039 20.9 20.9V20.558C22.1566 20.102 23.213 19.2189 23.8845 18.063C24.556 16.9072 24.7998 15.5521 24.5735 14.2346C24.3471 12.9171 23.6649 11.7211 22.6461 10.8557C21.6273 9.99022 20.3367 9.51037 19 9.5Z" fill="white"/>
</svg>
