<svg width="32" height="31" viewBox="0 0 32 31" fill="none" xmlns="http://www.w3.org/2000/svg">
<path d="M31.2993 19.1456L27.7669 9.13116H27.7914C28.459 9.21774 29.1371 9.0999 29.7363 8.79318C30.3355 8.48647 30.8277 8.00529 31.1479 7.41313C31.5854 6.78742 30.6614 6.16171 30.1749 6.57936C29.6884 6.99701 28.3758 7.87209 25.8454 6.70328C23.1025 5.31194 20.2145 4.22735 17.2338 3.46917V1.07188C17.2338 0.943303 17.2085 0.815983 17.1593 0.697193C17.1101 0.578402 17.038 0.470467 16.9471 0.379548C16.8561 0.28863 16.7482 0.216509 16.6294 0.167304C16.5106 0.118099 16.3833 0.0927734 16.2547 0.0927734C16.1262 0.0927734 15.9988 0.118099 15.88 0.167304C15.7613 0.216509 15.6533 0.28863 15.5624 0.379548C15.4715 0.470467 15.3994 0.578402 15.3502 0.697193C15.301 0.815983 15.2756 0.943303 15.2756 1.07188V3.4707C12.2949 4.22889 9.40697 5.31348 6.66407 6.70481C4.13521 7.87209 2.82107 6.99701 2.33457 6.58089C1.84808 6.16477 0.924047 6.78895 1.36159 7.41466C1.68191 8.00667 2.17411 8.48773 2.77329 8.79442C3.37248 9.10112 4.05054 9.21905 4.71809 9.13269H4.74257L1.21166 19.1456H0.510986C0.864904 20.3151 1.58575 21.3398 2.56696 22.068C3.54816 22.7962 4.73765 23.1894 5.95957 23.1894C7.18148 23.1894 8.37097 22.7962 9.35218 22.068C10.3334 21.3398 11.0542 20.3151 11.4081 19.1456H10.7075L6.99604 8.62019C9.67165 7.62143 12.4486 6.91861 15.2772 6.52429V8.01437H14.7539V24.4833H13.9416V25.9504H12.4117C10.9752 25.9504 11.018 27.9775 11.018 27.9775C9.83546 27.9775 9.2434 28.9061 9.2434 30.0473H23.2676C23.2676 28.9061 22.6755 27.9775 21.493 27.9775C21.493 27.9775 21.5358 25.9504 20.0993 25.9504H18.5694V24.4833H17.757V8.0159H17.2338V6.52582C20.0624 6.92007 22.8394 7.62289 25.5149 8.62172L21.8035 19.1471H21.1028C21.4568 20.3167 22.1776 21.3413 23.1588 22.0695C24.14 22.7977 25.3295 23.1909 26.5514 23.1909C27.7733 23.1909 28.9628 22.7977 29.944 22.0695C30.9252 21.3413 31.6461 20.3167 32 19.1471H31.2993V19.1456ZM9.19751 19.1456H2.72163L5.9588 9.96646L9.19751 19.1456ZM23.3135 19.1456L26.5522 9.96646L29.7894 19.1456H23.3135Z" fill="white"/>
</svg>
