<svg width="36" height="36" viewBox="0 0 36 36" fill="none" xmlns="http://www.w3.org/2000/svg">
<path d="M34.9356 11.9343C34.9356 11.9343 34.9356 11.9343 34.9356 11.844C33.6648 8.37111 31.359 5.37267 28.33 3.25434C25.301 1.136 21.6951 0 18 0C14.3049 0 10.699 1.136 7.67002 3.25434C4.64105 5.37267 2.3352 8.37111 1.06439 11.844C1.06439 11.844 1.06439 11.844 1.06439 11.9343C-0.354798 15.8534 -0.354798 20.1466 1.06439 24.0657C1.06439 24.0657 1.06439 24.0657 1.06439 24.156C2.3352 27.6289 4.64105 30.6273 7.67002 32.7457C10.699 34.864 14.3049 36 18 36C21.6951 36 25.301 34.864 28.33 32.7457C31.359 30.6273 33.6648 27.6289 34.9356 24.156C34.9356 24.156 34.9356 24.156 34.9356 24.0657C36.3548 20.1466 36.3548 15.8534 34.9356 11.9343ZM4.00423 21.6105C3.3788 19.2442 3.3788 16.7558 4.00423 14.3895H7.35888C7.07037 16.7878 7.07037 19.2122 7.35888 21.6105H4.00423ZM5.48316 25.2211H8.00817C8.43151 26.8311 9.0366 28.3876 9.81175 29.8606C8.04298 28.6546 6.5644 27.0698 5.48316 25.2211ZM8.00817 10.7789H5.48316C6.54884 8.93591 8.00852 7.35158 9.75764 6.1394C9.00114 7.61474 8.41423 9.1712 8.00817 10.7789ZM16.1603 31.9006C13.9451 30.2734 12.3893 27.9023 11.7777 25.2211H16.1603V31.9006ZM16.1603 21.6105H11.0021C10.6655 19.2153 10.6655 16.7847 11.0021 14.3895H16.1603V21.6105ZM16.1603 10.7789H11.7777C12.3893 8.0977 13.9451 5.72657 16.1603 4.09945V10.7789ZM30.4447 10.7789H27.9197C27.4964 9.16892 26.8913 7.61239 26.1161 6.1394C27.8849 7.34544 29.3635 8.93023 30.4447 10.7789ZM19.7675 4.09945C21.9827 5.72657 23.5385 8.0977 24.1502 10.7789H19.7675V4.09945ZM19.7675 31.9006V25.2211H24.1502C23.5385 27.9023 21.9827 30.2734 19.7675 31.9006ZM24.9257 21.6105H19.7675V14.3895H24.9257C25.2623 16.7847 25.2623 19.2153 24.9257 21.6105ZM26.1702 29.8606C26.9454 28.3876 27.5505 26.8311 27.9738 25.2211H30.4988C29.4176 27.0698 27.939 28.6546 26.1702 29.8606ZM31.9236 21.6105H28.569C28.7157 20.4127 28.7879 19.2068 28.7854 18C28.7874 16.7932 28.7151 15.5874 28.569 14.3895H31.9236C32.5491 16.7558 32.5491 19.2442 31.9236 21.6105Z" fill="#095A17"/>
</svg>
